{"accessors":[{"bufferView":0,"byteOffset":0,"componentType":5126,"count":770,"max":[11.9771251678467,14.2916898727417,2.99432277679443],"min":[-18.3092994689941,-0.48089849948883,-1.81827068328857],"normalized":false,"type":"VEC3"},{"bufferView":1,"byteOffset":0,"componentType":5126,"count":770,"max":[0.891846060752869,0.999970495700836,0.999723434448242,1],"min":[-0.97324991226196,-0.99995160102844,-0.99941742420197,-1],"normalized":false,"type":"VEC4"},{"bufferView":2,"byteOffset":0,"componentType":5126,"count":770,"max":[0.999054908752441,0.99630481004715,0.999384582042694],"min":[-0.99899566173553,-0.96598589420319,-0.99940067529678],"normalized":false,"type":"VEC3"},{"bufferView":3,"byteOffset":0,"componentType":5126,"count":770,"max":[0.972884714603424,0.985427618026733],"min":[0.0135805299505591,0.0137636382132769],"normalized":false,"type":"VEC2"},{"bufferView":4,"byteOffset":0,"componentType":5123,"count":2112,"max":[748],"min":[0],"normalized":false,"type":"SCALAR"},{"bufferView":5,"byteOffset":0,"componentType":5126,"count":40,"max":[10.0139169692993,9.00343704223633,2.73162126541138],"min":[-13.6918630599976,1.29724717140198,-1.69397461414337],"normalized":false,"type":"VEC3"},{"bufferView":6,"byteOffset":0,"componentType":5126,"count":40,"max":[0.533504962921143,0.813445508480072,0.026237478479743,-1],"min":[-0.8459991812706,-0.999975502491,-0.02434323914349,-1],"normalized":false,"type":"VEC4"},{"bufferView":7,"byteOffset":0,"componentType":5126,"count":40,"max":[0.0344917066395283,0.00706661492586136,0.999383985996246],"min":[-0.034523896873,-0.0068295118399,-0.99939352273941],"normalized":false,"type":"VEC3"},{"bufferView":8,"byteOffset":0,"componentType":5126,"count":40,"max":[0.957610428333282,0.825726687908173],"min":[0.18181124329567,0.02450598962605],"normalized":false,"type":"VEC2"},{"bufferView":9,"byteOffset":0,"componentType":5123,"count":60,"max":[39],"min":[0],"normalized":false,"type":"SCALAR"},{"bufferView":10,"byteOffset":0,"componentType":5126,"count":1261,"max":[10.0318145751953,14.2200546264648,2.33283567428589],"min":[-18.8510398864746,-0.02442038059235,-1.86180770397186],"normalized":false,"type":"VEC3"},{"bufferView":11,"byteOffset":0,"componentType":5126,"count":1261,"max":[0.999770283699036,0.985701739788055,0.999933838844299,1],"min":[-0.9999395608902,-0.99997633695602,-0.99981790781021,-1],"normalized":false,"type":"VEC4"},{"bufferView":12,"byteOffset":0,"componentType":5126,"count":1261,"max":[0.99732905626297,0.996624112129211,0.999563813209534],"min":[-0.99936950206757,-0.97716063261032,-0.99963510036469],"normalized":false,"type":"VEC3"},{"bufferView":13,"byteOffset":0,"componentType":5126,"count":1261,"max":[0.801770031452179,0.986221075057983],"min":[0.0135805299505591,0.0137636382132769],"normalized":false,"type":"VEC2"},{"bufferView":14,"byteOffset":0,"componentType":5123,"count":3132,"max":[1149],"min":[0],"normalized":false,"type":"SCALAR"},{"bufferView":15,"byteOffset":0,"componentType":5126,"count":367,"max":[-0.16457271575928,12.2020063400269,2.23382616043091],"min":[-9.81728744506836,6.156653881073,-1.49198067188263],"normalized":false,"type":"VEC3"},{"bufferView":16,"byteOffset":0,"componentType":5126,"count":367,"max":[0.635402739048004,0.799262523651123,0.999330043792725,-1],"min":[-0.75354170799255,-0.99992454051971,-0.99701303243637,-1],"normalized":false,"type":"VEC4"},{"bufferView":17,"byteOffset":0,"componentType":5126,"count":367,"max":[0.891962349414825,0.995195508003235,0.999383151531219],"min":[-0.98543739318848,-0.67765182256699,-0.99939256906509],"normalized":false,"type":"VEC3"},{"bufferView":18,"byteOffset":0,"componentType":5126,"count":367,"max":[0.595376491546631,0.701380968093872],"min":[0.0337987318634987,0.293797194957733],"normalized":false,"type":"VEC2"},{"bufferView":19,"byteOffset":0,"componentType":5123,"count":504,"max":[335],"min":[0],"normalized":false,"type":"SCALAR"},{"bufferView":20,"byteOffset":0,"componentType":5126,"count":87,"max":[9.40647506713867,9.18219470977783,1.50138700008392],"min":[2.33611798286438,2.09584283828735,-1.54956591129303],"normalized":false,"type":"VEC3"},{"bufferView":21,"byteOffset":0,"componentType":5126,"count":87,"max":[-0.01994168385863,0.162112429738045,0.399753034114838,-1],"min":[-0.98810523748398,-0.99209183454514,-0.39783653616905,-1],"normalized":false,"type":"VEC4"},{"bufferView":22,"byteOffset":0,"componentType":5126,"count":87,"max":[0.386056214570999,0.406856179237366,0.999383985996246],"min":[-0.42284712195396,-0.37838488817215,-0.99939221143723],"normalized":false,"type":"VEC3"},{"bufferView":23,"byteOffset":0,"componentType":5126,"count":87,"max":[0.745754182338715,0.869275987148285],"min":[0.194766148924828,0.13255512714386],"normalized":false,"type":"VEC2"},{"bufferView":24,"byteOffset":0,"componentType":5123,"count":132,"max":[71],"min":[0],"normalized":false,"type":"SCALAR"},{"bufferView":25,"byteOffset":0,"componentType":5126,"count":8,"max":[5.68191337585449,13.1665048599243,0.431756734848022],"min":[3.43939828872681,12.0026226043701,-0.3224812746048],"normalized":false,"type":"VEC3"},{"bufferView":26,"byteOffset":0,"componentType":5126,"count":8,"max":[0.478125274181366,-0.41340100765228,0.521935343742371,-1],"min":[-0.72525697946548,-0.83923709392548,-0.6250182390213,-1],"normalized":false,"type":"VEC4"},{"bufferView":27,"byteOffset":0,"componentType":5126,"count":8,"max":[0.267100989818573,0.56814044713974,0.852610170841217],"min":[0.266917556524277,0.449173182249069,-0.77864056825638],"normalized":false,"type":"VEC3"},{"bufferView":28,"byteOffset":0,"componentType":5126,"count":8,"max":[0.435523003339767,0.742015719413757],"min":[0.0295872427523136,0.268650352954865],"normalized":false,"type":"VEC2"},{"bufferView":29,"byteOffset":0,"componentType":5123,"count":12,"max":[7],"min":[0],"normalized":false,"type":"SCALAR"},{"bufferView":30,"byteOffset":0,"componentType":5126,"count":34,"max":[-14.8507738113403,3.83024454116821,1.48484075069427],"min":[-18.0242824554443,0.44549548625946,0.0494773499667645],"normalized":false,"type":"VEC3"},{"bufferView":31,"byteOffset":0,"componentType":5126,"count":34,"max":[-0.04226895421743,0.147938266396523,0.988677501678467,-1],"min":[-0.04428166896105,0.143979996442795,0.988007068634033,-1],"normalized":false,"type":"VEC4"},{"bufferView":32,"byteOffset":0,"componentType":5126,"count":34,"max":[-0.89180767536163,-0.45151978731155,0.0277252234518528],"min":[-0.8918325304985,-0.45156979560852,0.0276264660060406],"normalized":false,"type":"VEC3"},{"bufferView":33,"byteOffset":0,"componentType":5126,"count":34,"max":[0.582452118396759,0.139635309576988],"min":[0.0391241312026978,0.0304875262081623],"normalized":false,"type":"VEC2"},{"bufferView":34,"byteOffset":0,"componentType":5123,"count":96,"max":[33],"min":[0],"normalized":false,"type":"SCALAR"},{"bufferView":35,"byteOffset":0,"componentType":5126,"count":1,"max":[0],"min":[0],"normalized":false,"type":"SCALAR"},{"bufferView":36,"byteOffset":0,"componentType":5126,"count":1,"max":[0,0,0],"min":[0,0,0],"normalized":false,"type":"VEC3"},{"bufferView":37,"byteOffset":0,"componentType":5126,"count":3,"max":[0.233300000429153],"min":[0],"normalized":false,"type":"SCALAR"},{"bufferView":38,"byteOffset":0,"componentType":5126,"count":3,"max":[0.0172764360904694,0,0],"min":[0,0,0],"normalized":false,"type":"VEC3"}],"animations":[{"channels":[{"sampler":0,"target":{"node":1,"path":"translation"}}],"name":"RESET","samplers":[{"input":35,"interpolation":"LINEAR","output":36}]},{"channels":[{"sampler":0,"target":{"node":1,"path":"translation"}}],"name":"Shoot","samplers":[{"input":37,"interpolation":"LINEAR","output":38}]}],"asset":{"generator":"Godot Engine v4.3.stable.official@77dcf97d82cbfe4e4615475fa52ca03da645dbd8","version":"2.0"},"bufferViews":[{"buffer":0,"byteLength":9240,"byteOffset":0,"byteStride":12,"target":34962},{"buffer":0,"byteLength":12320,"byteOffset":9240,"byteStride":16,"target":34962},{"buffer":0,"byteLength":9240,"byteOffset":21560,"byteStride":12,"target":34962},{"buffer":0,"byteLength":6160,"byteOffset":30800,"byteStride":8,"target":34962},{"buffer":0,"byteLength":4224,"byteOffset":36960,"target":34963},{"buffer":0,"byteLength":480,"byteOffset":41184,"byteStride":12,"target":34962},{"buffer":0,"byteLength":640,"byteOffset":41664,"byteStride":16,"target":34962},{"buffer":0,"byteLength":480,"byteOffset":42304,"byteStride":12,"target":34962},{"buffer":0,"byteLength":320,"byteOffset":42784,"byteStride":8,"target":34962},{"buffer":0,"byteLength":120,"byteOffset":43104,"target":34963},{"buffer":0,"byteLength":15132,"byteOffset":43224,"byteStride":12,"target":34962},{"buffer":0,"byteLength":20176,"byteOffset":58356,"byteStride":16,"target":34962},{"buffer":0,"byteLength":15132,"byteOffset":78532,"byteStride":12,"target":34962},{"buffer":0,"byteLength":10088,"byteOffset":93664,"byteStride":8,"target":34962},{"buffer":0,"byteLength":6264,"byteOffset":103752,"target":34963},{"buffer":0,"byteLength":4404,"byteOffset":110016,"byteStride":12,"target":34962},{"buffer":0,"byteLength":5872,"byteOffset":114420,"byteStride":16,"target":34962},{"buffer":0,"byteLength":4404,"byteOffset":120292,"byteStride":12,"target":34962},{"buffer":0,"byteLength":2936,"byteOffset":124696,"byteStride":8,"target":34962},{"buffer":0,"byteLength":1008,"byteOffset":127632,"target":34963},{"buffer":0,"byteLength":1044,"byteOffset":128640,"byteStride":12,"target":34962},{"buffer":0,"byteLength":1392,"byteOffset":129684,"byteStride":16,"target":34962},{"buffer":0,"byteLength":1044,"byteOffset":131076,"byteStride":12,"target":34962},{"buffer":0,"byteLength":696,"byteOffset":132120,"byteStride":8,"target":34962},{"buffer":0,"byteLength":264,"byteOffset":132816,"target":34963},{"buffer":0,"byteLength":96,"byteOffset":133080,"byteStride":12,"target":34962},{"buffer":0,"byteLength":128,"byteOffset":133176,"byteStride":16,"target":34962},{"buffer":0,"byteLength":96,"byteOffset":133304,"byteStride":12,"target":34962},{"buffer":0,"byteLength":64,"byteOffset":133400,"byteStride":8,"target":34962},{"buffer":0,"byteLength":24,"byteOffset":133464,"target":34963},{"buffer":0,"byteLength":408,"byteOffset":133488,"byteStride":12,"target":34962},{"buffer":0,"byteLength":544,"byteOffset":133896,"byteStride":16,"target":34962},{"buffer":0,"byteLength":408,"byteOffset":134440,"byteStride":12,"target":34962},{"buffer":0,"byteLength":272,"byteOffset":134848,"byteStride":8,"target":34962},{"buffer":0,"byteLength":192,"byteOffset":135120,"target":34963},{"buffer":0,"byteLength":4,"byteOffset":135312},{"buffer":0,"byteLength":12,"byteOffset":135316},{"buffer":0,"byteLength":12,"byteOffset":135328},{"buffer":0,"byteLength":36,"byteOffset":135340}],"buffers":[{"byteLength":135376,"uri":"blaster0.bin"}],"extensionsUsed":["GODOT_single_root"],"materials":[{"doubleSided":true,"extensions":{},"name":"blinn2","pbrMetallicRoughness":{"baseColorFactor":[0.0207425095140934,0.0207425095140934,0.0207425095140934,1],"metallicFactor":1,"roughnessFactor":0.76990407705307}},{"doubleSided":true,"emissiveFactor":[0,0.999999940395355,0.955604374408722],"extensions":{},"name":"blinn3","pbrMetallicRoughness":{"baseColorFactor":[0.280696719884872,0.999999284744263,0,1],"metallicFactor":1,"roughnessFactor":0.583820879459381}},{"doubleSided":true,"extensions":{},"name":"blinn1","pbrMetallicRoughness":{"baseColorFactor":[0.0133142825216055,0.0133142825216055,0.0133142825216055,1],"metallicFactor":1,"roughnessFactor":0.843047142028809}},{"doubleSided":true,"extensions":{},"name":"phong2","pbrMetallicRoughness":{"baseColorFactor":[0.0623587034642696,0.0869999453425407,0.0412379615008831,1],"metallicFactor":0.473906219005585,"roughnessFactor":0.526093780994415}},{"doubleSided":true,"extensions":{},"name":"phong1","pbrMetallicRoughness":{"baseColorFactor":[0.0194805003702641,0.0194805003702641,0.0194805003702641,1],"metallicFactor":0,"roughnessFactor":0.361521869897842}},{"doubleSided":true,"extensions":{},"name":"lambert1","pbrMetallicRoughness":{"baseColorFactor":[0,0,0,1],"metallicFactor":0,"roughnessFactor":0.600000023841858}},{"doubleSided":true,"extensions":{},"name":"lambert2","pbrMetallicRoughness":{"baseColorFactor":[0,0,0,1],"metallicFactor":0,"roughnessFactor":0.600000023841858}}],"meshes":[{"extras":{"targetNames":[]},"primitives":[{"attributes":{"NORMAL":2,"POSITION":0,"TANGENT":1,"TEXCOORD_0":3},"indices":4,"material":0,"mode":4}]},{"extras":{"targetNames":[]},"primitives":[{"attributes":{"NORMAL":7,"POSITION":5,"TANGENT":6,"TEXCOORD_0":8},"indices":9,"material":1,"mode":4}]},{"extras":{"targetNames":[]},"primitives":[{"attributes":{"NORMAL":12,"POSITION":10,"TANGENT":11,"TEXCOORD_0":13},"indices":14,"material":2,"mode":4}]},{"extras":{"targetNames":[]},"primitives":[{"attributes":{"NORMAL":17,"POSITION":15,"TANGENT":16,"TEXCOORD_0":18},"indices":19,"material":3,"mode":4}]},{"extras":{"targetNames":[]},"primitives":[{"attributes":{"NORMAL":22,"POSITION":20,"TANGENT":21,"TEXCOORD_0":23},"indices":24,"material":4,"mode":4}]},{"extras":{"targetNames":[]},"primitives":[{"attributes":{"NORMAL":27,"POSITION":25,"TANGENT":26,"TEXCOORD_0":28},"indices":29,"material":5,"mode":4}]},{"extras":{"targetNames":[]},"primitives":[{"attributes":{"NORMAL":32,"POSITION":30,"TANGENT":31,"TEXCOORD_0":33},"indices":34,"material":6,"mode":4}]}],"nodes":[{"children":[1,12,13],"name":"Sketchfab_Scene"},{"children":[2],"name":"Sketchfab_model","rotation":[-0.6885649561882,0.160867646336555,-0.16086763143539,0.688564836978912]},{"children":[3],"name":"45dfcf1d8ad345f682c18a9b9147ec15_fbx","rotation":[0.70710676908493,0,0,0.70710676908493],"scale":[0.00999999977648258,0.00999999977648258,0.00999999977648258]},{"children":[4],"name":"RootNode"},{"children":[5,6,7,8,9,10,11],"name":"polySurface9"},{"mesh":0,"name":"polySurface9_blinn2_0"},{"mesh":1,"name":"polySurface9_blinn3_0"},{"mesh":2,"name":"polySurface9_blinn1_0"},{"mesh":3,"name":"polySurface9_phong2_0"},{"mesh":4,"name":"polySurface9_phong1_0"},{"mesh":5,"name":"polySurface9_lambert1_0"},{"mesh":6,"name":"polySurface9_lambert2_0"},{"name":"Muzzle","translation":[-0.18115897476673,0.0310330726206303,0.00910027138888836]},{"name":"AnimationPlayer"}],"scene":0,"scenes":[{"nodes":[0]}]}