{"accessors":[{"bufferView":0,"byteOffset":0,"componentType":5126,"count":768,"max":[11.9771251678467,14.2916898727417,2.99432277679443],"min":[-18.3092994689941,-0.48089849948883,-1.81827068328857],"normalized":false,"type":"VEC3"},{"bufferView":1,"byteOffset":0,"componentType":5126,"count":768,"max":[0.891836047172546,0.999970316886902,0.999723434448242,1],"min":[-0.96050608158112,-0.99995160102844,-0.99942064285278,-1],"normalized":false,"type":"VEC4"},{"bufferView":2,"byteOffset":0,"componentType":5126,"count":768,"max":[0.999054908752441,0.996317386627197,0.999384582042694],"min":[-0.99899566173553,-0.965964615345,-0.99982333183289],"normalized":false,"type":"VEC3"},{"bufferView":3,"byteOffset":0,"componentType":5126,"count":768,"max":[0.972884714603424,0.985427618026733],"min":[0.0135805299505591,0.0137636382132769],"normalized":false,"type":"VEC2"},{"bufferView":4,"byteOffset":0,"componentType":5123,"count":2112,"max":[748],"min":[0],"normalized":false,"type":"SCALAR"},{"bufferView":5,"byteOffset":0,"componentType":5126,"count":40,"max":[10.0139169692993,9.00343704223633,2.73162126541138],"min":[-13.6918630599976,1.29724717140198,-1.69397461414337],"normalized":false,"type":"VEC3"},{"bufferView":6,"byteOffset":0,"componentType":5126,"count":40,"max":[0.533385396003723,0.813426196575165,0.026289775967598,-1],"min":[-0.8459991812706,-0.999975502491,-0.02414700016379,-1],"normalized":false,"type":"VEC4"},{"bufferView":7,"byteOffset":0,"componentType":5126,"count":40,"max":[0.0344917066395283,0.00687226746231318,0.999383985996246],"min":[-0.03444883227348,-0.0068295118399,-0.99938595294952],"normalized":false,"type":"VEC3"},{"bufferView":8,"byteOffset":0,"componentType":5126,"count":40,"max":[0.957610428333282,0.825726687908173],"min":[0.18181124329567,0.02450598962605],"normalized":false,"type":"VEC2"},{"bufferView":9,"byteOffset":0,"componentType":5123,"count":60,"max":[39],"min":[0],"normalized":false,"type":"SCALAR"},{"bufferView":10,"byteOffset":0,"componentType":5126,"count":1250,"max":[10.0318145751953,14.2200546264648,2.33283567428589],"min":[-18.8510398864746,-0.02442038059235,-1.86180770397186],"normalized":false,"type":"VEC3"},{"bufferView":11,"byteOffset":0,"componentType":5126,"count":1250,"max":[0.998403191566467,0.985701739788055,0.999933838844299,1],"min":[-0.99998533725739,-0.99997663497925,-0.99981713294983,-1],"normalized":false,"type":"VEC4"},{"bufferView":12,"byteOffset":0,"componentType":5126,"count":1250,"max":[0.99732905626297,0.993593513965607,0.999563872814178],"min":[-0.9993639588356,-0.97762799263,-0.99963390827179],"normalized":false,"type":"VEC3"},{"bufferView":13,"byteOffset":0,"componentType":5126,"count":1250,"max":[0.801770031452179,0.986221075057983],"min":[0.0135805299505591,0.0137636382132769],"normalized":false,"type":"VEC2"},{"bufferView":14,"byteOffset":0,"componentType":5123,"count":3132,"max":[1149],"min":[0],"normalized":false,"type":"SCALAR"},{"bufferView":15,"byteOffset":0,"componentType":5126,"count":370,"max":[-0.16457271575928,12.2020063400269,2.23382616043091],"min":[-9.81728744506836,6.156653881073,-1.49198067188263],"normalized":false,"type":"VEC3"},{"bufferView":16,"byteOffset":0,"componentType":5126,"count":370,"max":[0.754990994930267,0.97941929101944,0.999329805374146,-1],"min":[-0.75354170799255,-0.99992454051971,-0.99701303243637,-1],"normalized":false,"type":"VEC4"},{"bufferView":17,"byteOffset":0,"componentType":5126,"count":370,"max":[0.891904413700104,0.995203137397766,0.999383151531219],"min":[-0.98410385847092,-0.67755728960037,-0.99944490194321],"normalized":false,"type":"VEC3"},{"bufferView":18,"byteOffset":0,"componentType":5126,"count":370,"max":[0.595376491546631,0.701380968093872],"min":[0.0337987318634987,0.293797194957733],"normalized":false,"type":"VEC2"},{"bufferView":19,"byteOffset":0,"componentType":5123,"count":504,"max":[335],"min":[0],"normalized":false,"type":"SCALAR"},{"bufferView":20,"byteOffset":0,"componentType":5126,"count":84,"max":[9.40647506713867,9.18219470977783,1.50138700008392],"min":[2.33611798286438,2.09584283828735,-1.54956591129303],"normalized":false,"type":"VEC3"},{"bufferView":21,"byteOffset":0,"componentType":5126,"count":84,"max":[-0.01994168385863,-0.00517822429538,0.399753034114838,-1],"min":[-0.98995912075043,-0.99209183454514,-0.39796617627144,-1],"normalized":false,"type":"VEC4"},{"bufferView":22,"byteOffset":0,"componentType":5126,"count":84,"max":[0.5063356757164,0.406736105680466,0.999383985996246],"min":[-0.40472078323364,-0.34498888254166,-0.99938654899597],"normalized":false,"type":"VEC3"},{"bufferView":23,"byteOffset":0,"componentType":5126,"count":84,"max":[0.745754182338715,0.869275987148285],"min":[0.194766148924828,0.13255512714386],"normalized":false,"type":"VEC2"},{"bufferView":24,"byteOffset":0,"componentType":5123,"count":132,"max":[71],"min":[0],"normalized":false,"type":"SCALAR"},{"bufferView":25,"byteOffset":0,"componentType":5126,"count":8,"max":[5.68191337585449,13.1665048599243,0.431756734848022],"min":[3.43939828872681,12.0026226043701,-0.3224812746048],"normalized":false,"type":"VEC3"},{"bufferView":26,"byteOffset":0,"componentType":5126,"count":8,"max":[0.478125274181366,-0.41359329223633,0.521935343742371,-1],"min":[-0.72515642642975,-0.83923709392548,-0.62511116266251,-1],"normalized":false,"type":"VEC4"},{"bufferView":27,"byteOffset":0,"componentType":5126,"count":8,"max":[0.267115831375122,0.568019032478333,0.852610170841217],"min":[0.267019659280777,0.449173182249069,-0.77853322029114],"normalized":false,"type":"VEC3"},{"bufferView":28,"byteOffset":0,"componentType":5126,"count":8,"max":[0.435523003339767,0.742015719413757],"min":[0.0295872427523136,0.268650352954865],"normalized":false,"type":"VEC2"},{"bufferView":29,"byteOffset":0,"componentType":5123,"count":12,"max":[7],"min":[0],"normalized":false,"type":"SCALAR"},{"bufferView":30,"byteOffset":0,"componentType":5126,"count":34,"max":[-14.8507738113403,3.83024454116821,1.48484075069427],"min":[-18.0242824554443,0.44549548625946,0.0494773499667645],"normalized":false,"type":"VEC3"},{"bufferView":31,"byteOffset":0,"componentType":5126,"count":34,"max":[-0.04226895421743,0.147889167070389,0.988677501678467,-1],"min":[-0.04428298026323,0.143979996442795,0.988014400005341,-1],"normalized":false,"type":"VEC4"},{"bufferView":32,"byteOffset":0,"componentType":5126,"count":34,"max":[-0.89183115959167,-0.45149409770966,0.0276927724480629],"min":[-0.89184433221817,-0.45152413845062,0.0276057422161102],"normalized":false,"type":"VEC3"},{"bufferView":33,"byteOffset":0,"componentType":5126,"count":34,"max":[0.582452118396759,0.139635309576988],"min":[0.0391241312026978,0.0304875262081623],"normalized":false,"type":"VEC2"},{"bufferView":34,"byteOffset":0,"componentType":5123,"count":96,"max":[33],"min":[0],"normalized":false,"type":"SCALAR"}],"asset":{"generator":"Godot Engine v4.3.stable.official@77dcf97d82cbfe4e4615475fa52ca03da645dbd8","version":"2.0"},"bufferViews":[{"buffer":0,"byteLength":9216,"byteOffset":0,"byteStride":12,"target":34962},{"buffer":0,"byteLength":12288,"byteOffset":9216,"byteStride":16,"target":34962},{"buffer":0,"byteLength":9216,"byteOffset":21504,"byteStride":12,"target":34962},{"buffer":0,"byteLength":6144,"byteOffset":30720,"byteStride":8,"target":34962},{"buffer":0,"byteLength":4224,"byteOffset":36864,"target":34963},{"buffer":0,"byteLength":480,"byteOffset":41088,"byteStride":12,"target":34962},{"buffer":0,"byteLength":640,"byteOffset":41568,"byteStride":16,"target":34962},{"buffer":0,"byteLength":480,"byteOffset":42208,"byteStride":12,"target":34962},{"buffer":0,"byteLength":320,"byteOffset":42688,"byteStride":8,"target":34962},{"buffer":0,"byteLength":120,"byteOffset":43008,"target":34963},{"buffer":0,"byteLength":15000,"byteOffset":43128,"byteStride":12,"target":34962},{"buffer":0,"byteLength":20000,"byteOffset":58128,"byteStride":16,"target":34962},{"buffer":0,"byteLength":15000,"byteOffset":78128,"byteStride":12,"target":34962},{"buffer":0,"byteLength":10000,"byteOffset":93128,"byteStride":8,"target":34962},{"buffer":0,"byteLength":6264,"byteOffset":103128,"target":34963},{"buffer":0,"byteLength":4440,"byteOffset":109392,"byteStride":12,"target":34962},{"buffer":0,"byteLength":5920,"byteOffset":113832,"byteStride":16,"target":34962},{"buffer":0,"byteLength":4440,"byteOffset":119752,"byteStride":12,"target":34962},{"buffer":0,"byteLength":2960,"byteOffset":124192,"byteStride":8,"target":34962},{"buffer":0,"byteLength":1008,"byteOffset":127152,"target":34963},{"buffer":0,"byteLength":1008,"byteOffset":128160,"byteStride":12,"target":34962},{"buffer":0,"byteLength":1344,"byteOffset":129168,"byteStride":16,"target":34962},{"buffer":0,"byteLength":1008,"byteOffset":130512,"byteStride":12,"target":34962},{"buffer":0,"byteLength":672,"byteOffset":131520,"byteStride":8,"target":34962},{"buffer":0,"byteLength":264,"byteOffset":132192,"target":34963},{"buffer":0,"byteLength":96,"byteOffset":132456,"byteStride":12,"target":34962},{"buffer":0,"byteLength":128,"byteOffset":132552,"byteStride":16,"target":34962},{"buffer":0,"byteLength":96,"byteOffset":132680,"byteStride":12,"target":34962},{"buffer":0,"byteLength":64,"byteOffset":132776,"byteStride":8,"target":34962},{"buffer":0,"byteLength":24,"byteOffset":132840,"target":34963},{"buffer":0,"byteLength":408,"byteOffset":132864,"byteStride":12,"target":34962},{"buffer":0,"byteLength":544,"byteOffset":133272,"byteStride":16,"target":34962},{"buffer":0,"byteLength":408,"byteOffset":133816,"byteStride":12,"target":34962},{"buffer":0,"byteLength":272,"byteOffset":134224,"byteStride":8,"target":34962},{"buffer":0,"byteLength":192,"byteOffset":134496,"target":34963}],"buffers":[{"byteLength":134688,"uri":"blaster0.bin"}],"extensionsUsed":["GODOT_single_root"],"materials":[{"doubleSided":true,"extensions":{},"name":"blinn2","pbrMetallicRoughness":{"baseColorFactor":[0.0207425095140934,0.0207425095140934,0.0207425095140934,1],"metallicFactor":1,"roughnessFactor":0.76990407705307}},{"doubleSided":true,"emissiveFactor":[0,0.999999940395355,0.306077212095261],"extensions":{},"name":"blinn3","pbrMetallicRoughness":{"baseColorFactor":[0.280696839094162,0.99999988079071,0,1],"metallicFactor":1,"roughnessFactor":0.583820879459381}},{"doubleSided":true,"extensions":{},"name":"blinn1","pbrMetallicRoughness":{"baseColorFactor":[0.0133142890408635,0.0133142890408635,0.0133142890408635,1],"metallicFactor":1,"roughnessFactor":0.843047142028809}},{"doubleSided":true,"extensions":{},"name":"phong2","pbrMetallicRoughness":{"baseColorFactor":[0.0623587034642696,0.0869999825954437,0.0412379838526249,1],"metallicFactor":0.473906219005585,"roughnessFactor":0.526093780994415}},{"doubleSided":true,"extensions":{},"name":"phong1","pbrMetallicRoughness":{"baseColorFactor":[0.0194805003702641,0.0194805003702641,0.0194805003702641,1],"metallicFactor":0,"roughnessFactor":0.361521869897842}},{"doubleSided":true,"extensions":{},"name":"lambert1","pbrMetallicRoughness":{"baseColorFactor":[0,0,0,1],"metallicFactor":0,"roughnessFactor":0.600000023841858}},{"doubleSided":true,"extensions":{},"name":"lambert2","pbrMetallicRoughness":{"baseColorFactor":[0,0,0,1],"metallicFactor":0,"roughnessFactor":0.600000023841858}}],"meshes":[{"extras":{"targetNames":[]},"primitives":[{"attributes":{"NORMAL":2,"POSITION":0,"TANGENT":1,"TEXCOORD_0":3},"indices":4,"material":0,"mode":4}]},{"extras":{"targetNames":[]},"primitives":[{"attributes":{"NORMAL":7,"POSITION":5,"TANGENT":6,"TEXCOORD_0":8},"indices":9,"material":1,"mode":4}]},{"extras":{"targetNames":[]},"primitives":[{"attributes":{"NORMAL":12,"POSITION":10,"TANGENT":11,"TEXCOORD_0":13},"indices":14,"material":2,"mode":4}]},{"extras":{"targetNames":[]},"primitives":[{"attributes":{"NORMAL":17,"POSITION":15,"TANGENT":16,"TEXCOORD_0":18},"indices":19,"material":3,"mode":4}]},{"extras":{"targetNames":[]},"primitives":[{"attributes":{"NORMAL":22,"POSITION":20,"TANGENT":21,"TEXCOORD_0":23},"indices":24,"material":4,"mode":4}]},{"extras":{"targetNames":[]},"primitives":[{"attributes":{"NORMAL":27,"POSITION":25,"TANGENT":26,"TEXCOORD_0":28},"indices":29,"material":5,"mode":4}]},{"extras":{"targetNames":[]},"primitives":[{"attributes":{"NORMAL":32,"POSITION":30,"TANGENT":31,"TEXCOORD_0":33},"indices":34,"material":6,"mode":4}]}],"nodes":[{"children":[1,12],"name":"Sketchfab_Scene"},{"children":[2],"name":"Sketchfab_model","rotation":[-0.70710676908493,0,0,0.70710676908493]},{"children":[3],"name":"45dfcf1d8ad345f682c18a9b9147ec15_fbx","rotation":[0.70710676908493,0,0,0.70710676908493],"scale":[0.00999999977648258,0.00999999977648258,0.00999999977648258]},{"children":[4],"name":"RootNode"},{"children":[5,6,7,8,9,10,11],"name":"polySurface9"},{"mesh":0,"name":"polySurface9_blinn2_0"},{"mesh":1,"name":"polySurface9_blinn3_0"},{"mesh":2,"name":"polySurface9_blinn1_0"},{"mesh":3,"name":"polySurface9_phong2_0"},{"mesh":4,"name":"polySurface9_phong1_0"},{"mesh":5,"name":"polySurface9_lambert1_0"},{"mesh":6,"name":"polySurface9_lambert2_0"},{"name":"Muzzle","translation":[-0.18115897476673,0.0310330726206303,0.00910027138888836]}],"scene":0,"scenes":[{"nodes":[0]}]}