{"accessors":[{"bufferView":0,"byteOffset":0,"componentType":5126,"count":72,"max":[0.48746395111084,0.5,0.48746395111084],"min":[-0.48746395111084,-0.5,-0.48746395111084],"normalized":false,"type":"VEC3"},{"bufferView":1,"byteOffset":0,"componentType":5126,"count":72,"max":[1,0,1,1],"min":[-1,-0.00002157951531,-1,1],"normalized":false,"type":"VEC4"},{"bufferView":2,"byteOffset":0,"componentType":5126,"count":72,"max":[0.974931597709656,1,0.974933385848999],"min":[-0.974933385849,-1,-0.97491973638535],"normalized":false,"type":"VEC3"},{"bufferView":3,"byteOffset":0,"componentType":5126,"count":72,"max":[1,1],"min":[0,0],"normalized":false,"type":"VEC2"},{"bufferView":4,"byteOffset":0,"componentType":5123,"count":336,"max":[71],"min":[0],"normalized":false,"type":"SCALAR"},{"bufferView":5,"byteOffset":0,"componentType":5126,"count":72,"max":[0.48746395111084,0.5,0.48746395111084],"min":[-0.48746395111084,-0.5,-0.48746395111084],"normalized":false,"type":"VEC3"},{"bufferView":6,"byteOffset":0,"componentType":5126,"count":72,"max":[1,0,1,1],"min":[-1,-0.00002157951531,-1,1],"normalized":false,"type":"VEC4"},{"bufferView":7,"byteOffset":0,"componentType":5126,"count":72,"max":[0.974931597709656,1,0.974933385848999],"min":[-0.974933385849,-1,-0.97491973638535],"normalized":false,"type":"VEC3"},{"bufferView":8,"byteOffset":0,"componentType":5126,"count":72,"max":[1,1],"min":[0,0],"normalized":false,"type":"VEC2"},{"bufferView":9,"byteOffset":0,"componentType":5123,"count":336,"max":[71],"min":[0],"normalized":false,"type":"SCALAR"}],"asset":{"generator":"Godot Engine v4.3.stable.official@77dcf97d82cbfe4e4615475fa52ca03da645dbd8","version":"2.0"},"bufferViews":[{"buffer":0,"byteLength":864,"byteOffset":0,"byteStride":12,"target":34962},{"buffer":0,"byteLength":1152,"byteOffset":864,"byteStride":16,"target":34962},{"buffer":0,"byteLength":864,"byteOffset":2016,"byteStride":12,"target":34962},{"buffer":0,"byteLength":576,"byteOffset":2880,"byteStride":8,"target":34962},{"buffer":0,"byteLength":672,"byteOffset":3456,"target":34963},{"buffer":0,"byteLength":864,"byteOffset":4128,"byteStride":12,"target":34962},{"buffer":0,"byteLength":1152,"byteOffset":4992,"byteStride":16,"target":34962},{"buffer":0,"byteLength":864,"byteOffset":6144,"byteStride":12,"target":34962},{"buffer":0,"byteLength":576,"byteOffset":7008,"byteStride":8,"target":34962},{"buffer":0,"byteLength":672,"byteOffset":7584,"target":34963}],"buffers":[{"byteLength":8256,"uri":"explosion0.bin"}],"extensionsUsed":["GODOT_single_root","KHR_materials_emissive_strength"],"materials":[{"alphaMode":"BLEND","emissiveFactor":[0.999999940395355,0.685380637645721,0.505969285964966],"extensions":{"KHR_materials_emissive_strength":{"emissiveStrength":3.90000009536743}},"pbrMetallicRoughness":{"baseColorFactor":[0.99999988079071,0.057805422693491,0,1],"metallicFactor":0,"roughnessFactor":1}}],"meshes":[{"extras":{"targetNames":[]},"primitives":[{"attributes":{"NORMAL":2,"POSITION":0,"TANGENT":1,"TEXCOORD_0":3},"indices":4,"material":0,"mode":4}]},{"extras":{"targetNames":[]},"primitives":[{"attributes":{"NORMAL":7,"POSITION":5,"TANGENT":6,"TEXCOORD_0":8},"indices":9,"material":0,"mode":4}]}],"nodes":[{"children":[1,2],"name":"Explosion"},{"mesh":0,"name":"InnerExplosion"},{"mesh":1,"name":"OuterExplosion","scale":[2,2,2],"translation":[-0.00386714935303,0.0176812410354614,-0.00039672851563]}],"scene":0,"scenes":[{"nodes":[0]}]}