{"accessors":[{"bufferView":0,"byteOffset":0,"componentType":5126,"count":355,"max":[0.1875,0.481809377670288,0.934220492839813],"min":[-0.1875,-2.20569062232971,-0.31577950716019],"normalized":false,"type":"VEC3"},{"bufferView":1,"byteOffset":0,"componentType":5126,"count":355,"max":[1,1,1.00000011920929,1],"min":[-1,-1.00000011920929,-1.00000011920929,-1],"normalized":false,"type":"VEC4"},{"bufferView":2,"byteOffset":0,"componentType":5126,"count":355,"max":[1,1,1],"min":[-1,-1,-1],"normalized":false,"type":"VEC3"},{"bufferView":3,"byteOffset":0,"componentType":5126,"count":355,"max":[1,1],"min":[0,0],"normalized":false,"type":"VEC2"},{"bufferView":4,"byteOffset":0,"componentType":5123,"count":666,"max":[329],"min":[0],"normalized":false,"type":"SCALAR"},{"bufferView":5,"byteOffset":0,"componentType":5126,"count":52,"max":[0.0625000223517418,0.124999970197678,0.312499940395355],"min":[-0.06250000745058,-0.00000004221259,-0.00000010801362],"normalized":false,"type":"VEC3"},{"bufferView":6,"byteOffset":0,"componentType":5126,"count":52,"max":[1,0.70705384016037,0.0000831186771392822,-1],"min":[-1,-1.00000011920929,-0.70715981721878,-1],"normalized":false,"type":"VEC4"},{"bufferView":7,"byteOffset":0,"componentType":5126,"count":52,"max":[1,1,1],"min":[-1,-1,-0.70712727308273],"normalized":false,"type":"VEC3"},{"bufferView":8,"byteOffset":0,"componentType":5126,"count":52,"max":[1,0.953124284744263],"min":[0,0],"normalized":false,"type":"VEC2"},{"bufferView":9,"byteOffset":0,"componentType":5123,"count":54,"max":[51],"min":[0],"normalized":false,"type":"SCALAR"},{"bufferView":10,"byteOffset":0,"componentType":5126,"count":252,"max":[0.1875,0.6875,1.625],"min":[-0.1875,-1.9375,1.0625],"normalized":false,"type":"VEC3"},{"bufferView":11,"byteOffset":0,"componentType":5126,"count":252,"max":[1,1.00000011920929,1,1],"min":[-1,-1.00000011920929,-1.00000011920929,-1],"normalized":false,"type":"VEC4"},{"bufferView":12,"byteOffset":0,"componentType":5126,"count":252,"max":[1,1,1],"min":[-1,-1,-1],"normalized":false,"type":"VEC3"},{"bufferView":13,"byteOffset":0,"componentType":5126,"count":252,"max":[1,0.937499046325684],"min":[0,0],"normalized":false,"type":"VEC2"},{"bufferView":14,"byteOffset":0,"componentType":5123,"count":462,"max":[251],"min":[0],"normalized":false,"type":"SCALAR"},{"bufferView":15,"byteOffset":0,"componentType":5126,"count":28,"max":[0.125000014901161,-0.00000023841858,0.250000059604645],"min":[-0.12499998509884,-1.25000023841858,0.0000000304667757689003],"normalized":false,"type":"VEC3"},{"bufferView":16,"byteOffset":0,"componentType":5126,"count":28,"max":[0.707064390182495,0.000154882669448853,0.707149147987366,-1],"min":[-0.70723390579224,-0.00000003345997,-0.70718938112259,-1],"normalized":false,"type":"VEC4"},{"bufferView":17,"byteOffset":0,"componentType":5126,"count":28,"max":[0.707149207592011,0.0000260507204075111,0.70706444978714],"min":[-0.70718944072723,-1,-0.70723390579224],"normalized":false,"type":"VEC3"},{"bufferView":18,"byteOffset":0,"componentType":5126,"count":28,"max":[1,0.578118562698364],"min":[0.171862363815308,0],"normalized":false,"type":"VEC2"},{"bufferView":19,"byteOffset":0,"componentType":5123,"count":30,"max":[27],"min":[0],"normalized":false,"type":"SCALAR"},{"bufferView":20,"byteOffset":0,"componentType":5126,"count":54,"max":[0.0625,0.0625,-0.00000005960464],"min":[-0.0625,-0.125,-0.31250005960464],"normalized":false,"type":"VEC3"},{"bufferView":21,"byteOffset":0,"componentType":5126,"count":54,"max":[1,0.999999940395355,0.0000304562272503972,1],"min":[-1,-1.00000011920929,-1.00000011920929,-1],"normalized":false,"type":"VEC4"},{"bufferView":22,"byteOffset":0,"componentType":5126,"count":54,"max":[1,1,0.554640710353851],"min":[-1,-1,-1],"normalized":false,"type":"VEC3"},{"bufferView":23,"byteOffset":0,"componentType":5126,"count":54,"max":[0.968749523162842,0.203112840652466],"min":[0.0937361717224121,0.0312352180480957],"normalized":false,"type":"VEC2"},{"bufferView":24,"byteOffset":0,"componentType":5123,"count":54,"max":[53],"min":[0],"normalized":false,"type":"SCALAR"},{"bufferView":25,"byteOffset":0,"componentType":5126,"count":48,"max":[0.1875,0,0],"min":[-0.1875,-0.125,-0.0625],"normalized":false,"type":"VEC3"},{"bufferView":26,"byteOffset":0,"componentType":5126,"count":48,"max":[0.196147322654724,1,1,-1],"min":[-0.14158581197262,-0.00008329749107,-1,-1],"normalized":false,"type":"VEC4"},{"bufferView":27,"byteOffset":0,"componentType":5126,"count":48,"max":[1,1,1],"min":[-1,-1,-1],"normalized":false,"type":"VEC3"},{"bufferView":28,"byteOffset":0,"componentType":5126,"count":48,"max":[0.968749523162842,0.921873807907104],"min":[0,0.265613794326782],"normalized":false,"type":"VEC2"},{"bufferView":29,"byteOffset":0,"componentType":5123,"count":60,"max":[47],"min":[0],"normalized":false,"type":"SCALAR"},{"bufferView":30,"byteOffset":0,"componentType":5126,"count":88,"max":[0.1875,0.5625,1.1875],"min":[-0.1875,-0.25,-0.125],"normalized":false,"type":"VEC3"},{"bufferView":31,"byteOffset":0,"componentType":5126,"count":88,"max":[1,1,1,1],"min":[-1,-0.44717192649841,-1.00000011920929,-1],"normalized":false,"type":"VEC4"},{"bufferView":32,"byteOffset":0,"componentType":5126,"count":88,"max":[1,0.954455018043518,1],"min":[-1,-0.95446300506592,-1],"normalized":false,"type":"VEC3"},{"bufferView":33,"byteOffset":0,"componentType":5126,"count":88,"max":[1,0.906248569488525],"min":[0.156237125396729,0],"normalized":false,"type":"VEC2"},{"bufferView":34,"byteOffset":0,"componentType":5123,"count":156,"max":[87],"min":[0],"normalized":false,"type":"SCALAR"},{"bufferView":35,"byteOffset":0,"componentType":5126,"count":424,"max":[0.202736899256706,0.494399964809418,0.944681942462921],"min":[-0.20273689925671,-2.22369050979614,-0.33017936348915],"normalized":false,"type":"VEC3"},{"bufferView":36,"byteOffset":0,"componentType":5126,"count":424,"max":[1,0.999996840953827,0.00253503257408738,1],"min":[-0.00444041797891,0,-0.00004577846266,-1],"normalized":false,"type":"VEC4"},{"bufferView":37,"byteOffset":0,"componentType":5126,"count":424,"max":[0.999999642372131,1,0.999999165534973],"min":[-0.99999970197678,-1,-0.99998998641968],"normalized":false,"type":"VEC3"},{"bufferView":38,"byteOffset":0,"componentType":5126,"count":424,"max":[0.4375,0.484375],"min":[0.40625,0.453125],"normalized":false,"type":"VEC2"},{"bufferView":39,"byteOffset":0,"componentType":5123,"count":666,"max":[397],"min":[0],"normalized":false,"type":"SCALAR"},{"bufferView":40,"byteOffset":0,"componentType":5126,"count":52,"max":[0.0745643004775047,0.139142110943794,0.323091685771942],"min":[-0.0745643004775,-0.01000004261732,-0.00000010806246],"normalized":false,"type":"VEC3"},{"bufferView":41,"byteOffset":0,"componentType":5126,"count":52,"max":[1,0,-0.00001525902189,1],"min":[1,0,-0.00004577846266,-1],"normalized":false,"type":"VEC4"},{"bufferView":42,"byteOffset":0,"componentType":5126,"count":52,"max":[0.999937117099762,1,0.720061004161835],"min":[-0.99993747472763,-0.99995458126068,-0.99997043609619],"normalized":false,"type":"VEC3"},{"bufferView":43,"byteOffset":0,"componentType":5126,"count":52,"max":[0.4375,0.484375],"min":[0.40625,0.46875],"normalized":false,"type":"VEC2"},{"bufferView":44,"byteOffset":0,"componentType":5123,"count":54,"max":[51],"min":[0],"normalized":false,"type":"SCALAR"},{"bufferView":45,"byteOffset":0,"componentType":5126,"count":449,"max":[0.198933660984039,0.7014319896698,1.64091157913208],"min":[-0.19893366098404,-1.95550000667572,1.05250000953674],"normalized":false,"type":"VEC3"},{"bufferView":46,"byteOffset":0,"componentType":5126,"count":449,"max":[1,0.0115668158978224,0.00326713151298463,1],"min":[-0.99998140335083,-0.00597825041041,-0.00004577846266,-1],"normalized":false,"type":"VEC4"},{"bufferView":47,"byteOffset":0,"componentType":5126,"count":449,"max":[0.999999821186066,1,1],"min":[-0.99999982118607,-1,-0.99999916553497],"normalized":false,"type":"VEC3"},{"bufferView":48,"byteOffset":0,"componentType":5126,"count":449,"max":[0.4375,0.484375],"min":[0.40625,0.453125],"normalized":false,"type":"VEC2"},{"bufferView":49,"byteOffset":0,"componentType":5123,"count":462,"max":[448],"min":[0],"normalized":false,"type":"SCALAR"},{"bufferView":50,"byteOffset":0,"componentType":5126,"count":28,"max":[0.139142170548439,-0.00000022987952,0.2641421854496],"min":[-0.13914212584496,-1.26000022888184,-0.01414210535586],"normalized":false,"type":"VEC3"},{"bufferView":51,"byteOffset":0,"componentType":5126,"count":28,"max":[1,0,-0.00001525902189,1],"min":[1,0,-0.00004577846266,-1],"normalized":false,"type":"VEC4"},{"bufferView":52,"byteOffset":0,"componentType":5126,"count":28,"max":[0.707117557525635,1,0.707106828689575],"min":[-0.70714992284775,-0.00002157951712,-0.70713913440704],"normalized":false,"type":"VEC3"},{"bufferView":53,"byteOffset":0,"componentType":5126,"count":28,"max":[0.4375,0.484375],"min":[0.421875,0.453125],"normalized":false,"type":"VEC2"},{"bufferView":54,"byteOffset":0,"componentType":5123,"count":30,"max":[27],"min":[0],"normalized":false,"type":"SCALAR"},{"bufferView":55,"byteOffset":0,"componentType":5126,"count":54,"max":[0.0755852609872818,0.0730692222714424,-0.0000000621551],"min":[-0.07558526098728,-0.14240162074566,-0.32303458452225],"normalized":false,"type":"VEC3"},{"bufferView":56,"byteOffset":0,"componentType":5126,"count":54,"max":[1,0,-0.00001525902189,1],"min":[1,0,-0.00004577846266,-1],"normalized":false,"type":"VEC4"},{"bufferView":57,"byteOffset":0,"componentType":5126,"count":54,"max":[0.999988198280334,0.999948740005493,0.999898433685303],"min":[-0.99998849630356,-0.99999034404755,-0.55657958984375],"normalized":false,"type":"VEC3"},{"bufferView":58,"byteOffset":0,"componentType":5126,"count":54,"max":[0.4375,0.484375],"min":[0.421875,0.46875],"normalized":false,"type":"VEC2"},{"bufferView":59,"byteOffset":0,"componentType":5123,"count":54,"max":[53],"min":[0],"normalized":false,"type":"SCALAR"},{"bufferView":60,"byteOffset":0,"componentType":5126,"count":58,"max":[0.198091730475426,0.0100000016391277,0.00999999884516001],"min":[-0.19809173047543,-0.13559173047543,-0.07249999791384],"normalized":false,"type":"VEC3"},{"bufferView":61,"byteOffset":0,"componentType":5126,"count":58,"max":[1,0,-0.00001525902189,1],"min":[1,0,-0.00004577846266,-1],"normalized":false,"type":"VEC4"},{"bufferView":62,"byteOffset":0,"componentType":5126,"count":58,"max":[0.999970316886902,1,1],"min":[-0.99997043609619,-1,-1],"normalized":false,"type":"VEC3"},{"bufferView":63,"byteOffset":0,"componentType":5126,"count":58,"max":[0.4375,0.484375],"min":[0.421875,0.46875],"normalized":false,"type":"VEC2"},{"bufferView":64,"byteOffset":0,"componentType":5123,"count":60,"max":[57],"min":[0],"normalized":false,"type":"SCALAR"},{"bufferView":65,"byteOffset":0,"componentType":5126,"count":88,"max":[0.199564293026924,0.5777707695961,1.19804072380066],"min":[-0.19956429302692,-0.26300412416458,-0.13443787395954],"normalized":false,"type":"VEC3"},{"bufferView":66,"byteOffset":0,"componentType":5126,"count":88,"max":[1,0.953207075595856,-0.00001525902189,1],"min":[0.00461464049294591,0,-0.30236139893532,-1],"normalized":false,"type":"VEC4"},{"bufferView":67,"byteOffset":0,"componentType":5126,"count":88,"max":[0.999988794326782,0.954181730747223,1],"min":[-0.99998891353607,-0.95266103744507,-0.99999922513962],"normalized":false,"type":"VEC3"},{"bufferView":68,"byteOffset":0,"componentType":5126,"count":88,"max":[0.4375,0.484375],"min":[0.40625,0.46875],"normalized":false,"type":"VEC2"},{"bufferView":69,"byteOffset":0,"componentType":5123,"count":156,"max":[87],"min":[0],"normalized":false,"type":"SCALAR"},{"bufferView":70,"byteOffset":0,"componentType":5126,"count":1,"max":[0],"min":[0],"normalized":false,"type":"SCALAR"},{"bufferView":71,"byteOffset":0,"componentType":5126,"count":1,"max":[0,0,0],"min":[0,0,0],"normalized":false,"type":"VEC3"},{"bufferView":72,"byteOffset":0,"componentType":5126,"count":3,"max":[0.133300006389618],"min":[0],"normalized":false,"type":"SCALAR"},{"bufferView":73,"byteOffset":0,"componentType":5126,"count":3,"max":[0,0,0],"min":[0,0,-0.13725864887238],"normalized":false,"type":"VEC3"}],"animations":[{"channels":[{"sampler":0,"target":{"node":0,"path":"translation"}}],"name":"RESET","samplers":[{"input":70,"interpolation":"LINEAR","output":71}]},{"channels":[{"sampler":0,"target":{"node":0,"path":"translation"}}],"name":"Shoot","samplers":[{"input":72,"interpolation":"LINEAR","output":73}]}],"asset":{"generator":"Godot Engine v4.3.stable.official@77dcf97d82cbfe4e4615475fa52ca03da645dbd8","version":"2.0"},"bufferViews":[{"buffer":0,"byteLength":4260,"byteOffset":0,"byteStride":12,"target":34962},{"buffer":0,"byteLength":5680,"byteOffset":4260,"byteStride":16,"target":34962},{"buffer":0,"byteLength":4260,"byteOffset":9940,"byteStride":12,"target":34962},{"buffer":0,"byteLength":2840,"byteOffset":14200,"byteStride":8,"target":34962},{"buffer":0,"byteLength":1332,"byteOffset":17040,"target":34963},{"buffer":0,"byteLength":624,"byteOffset":18372,"byteStride":12,"target":34962},{"buffer":0,"byteLength":832,"byteOffset":18996,"byteStride":16,"target":34962},{"buffer":0,"byteLength":624,"byteOffset":19828,"byteStride":12,"target":34962},{"buffer":0,"byteLength":416,"byteOffset":20452,"byteStride":8,"target":34962},{"buffer":0,"byteLength":108,"byteOffset":20868,"target":34963},{"buffer":0,"byteLength":3024,"byteOffset":20976,"byteStride":12,"target":34962},{"buffer":0,"byteLength":4032,"byteOffset":24000,"byteStride":16,"target":34962},{"buffer":0,"byteLength":3024,"byteOffset":28032,"byteStride":12,"target":34962},{"buffer":0,"byteLength":2016,"byteOffset":31056,"byteStride":8,"target":34962},{"buffer":0,"byteLength":924,"byteOffset":33072,"target":34963},{"buffer":0,"byteLength":336,"byteOffset":33996,"byteStride":12,"target":34962},{"buffer":0,"byteLength":448,"byteOffset":34332,"byteStride":16,"target":34962},{"buffer":0,"byteLength":336,"byteOffset":34780,"byteStride":12,"target":34962},{"buffer":0,"byteLength":224,"byteOffset":35116,"byteStride":8,"target":34962},{"buffer":0,"byteLength":60,"byteOffset":35340,"target":34963},{"buffer":0,"byteLength":648,"byteOffset":35400,"byteStride":12,"target":34962},{"buffer":0,"byteLength":864,"byteOffset":36048,"byteStride":16,"target":34962},{"buffer":0,"byteLength":648,"byteOffset":36912,"byteStride":12,"target":34962},{"buffer":0,"byteLength":432,"byteOffset":37560,"byteStride":8,"target":34962},{"buffer":0,"byteLength":108,"byteOffset":37992,"target":34963},{"buffer":0,"byteLength":576,"byteOffset":38100,"byteStride":12,"target":34962},{"buffer":0,"byteLength":768,"byteOffset":38676,"byteStride":16,"target":34962},{"buffer":0,"byteLength":576,"byteOffset":39444,"byteStride":12,"target":34962},{"buffer":0,"byteLength":384,"byteOffset":40020,"byteStride":8,"target":34962},{"buffer":0,"byteLength":120,"byteOffset":40404,"target":34963},{"buffer":0,"byteLength":1056,"byteOffset":40524,"byteStride":12,"target":34962},{"buffer":0,"byteLength":1408,"byteOffset":41580,"byteStride":16,"target":34962},{"buffer":0,"byteLength":1056,"byteOffset":42988,"byteStride":12,"target":34962},{"buffer":0,"byteLength":704,"byteOffset":44044,"byteStride":8,"target":34962},{"buffer":0,"byteLength":312,"byteOffset":44748,"target":34963},{"buffer":0,"byteLength":5088,"byteOffset":45060,"byteStride":12,"target":34962},{"buffer":0,"byteLength":6784,"byteOffset":50148,"byteStride":16,"target":34962},{"buffer":0,"byteLength":5088,"byteOffset":56932,"byteStride":12,"target":34962},{"buffer":0,"byteLength":3392,"byteOffset":62020,"byteStride":8,"target":34962},{"buffer":0,"byteLength":1332,"byteOffset":65412,"target":34963},{"buffer":0,"byteLength":624,"byteOffset":66744,"byteStride":12,"target":34962},{"buffer":0,"byteLength":832,"byteOffset":67368,"byteStride":16,"target":34962},{"buffer":0,"byteLength":624,"byteOffset":68200,"byteStride":12,"target":34962},{"buffer":0,"byteLength":416,"byteOffset":68824,"byteStride":8,"target":34962},{"buffer":0,"byteLength":108,"byteOffset":69240,"target":34963},{"buffer":0,"byteLength":5388,"byteOffset":69348,"byteStride":12,"target":34962},{"buffer":0,"byteLength":7184,"byteOffset":74736,"byteStride":16,"target":34962},{"buffer":0,"byteLength":5388,"byteOffset":81920,"byteStride":12,"target":34962},{"buffer":0,"byteLength":3592,"byteOffset":87308,"byteStride":8,"target":34962},{"buffer":0,"byteLength":924,"byteOffset":90900,"target":34963},{"buffer":0,"byteLength":336,"byteOffset":91824,"byteStride":12,"target":34962},{"buffer":0,"byteLength":448,"byteOffset":92160,"byteStride":16,"target":34962},{"buffer":0,"byteLength":336,"byteOffset":92608,"byteStride":12,"target":34962},{"buffer":0,"byteLength":224,"byteOffset":92944,"byteStride":8,"target":34962},{"buffer":0,"byteLength":60,"byteOffset":93168,"target":34963},{"buffer":0,"byteLength":648,"byteOffset":93228,"byteStride":12,"target":34962},{"buffer":0,"byteLength":864,"byteOffset":93876,"byteStride":16,"target":34962},{"buffer":0,"byteLength":648,"byteOffset":94740,"byteStride":12,"target":34962},{"buffer":0,"byteLength":432,"byteOffset":95388,"byteStride":8,"target":34962},{"buffer":0,"byteLength":108,"byteOffset":95820,"target":34963},{"buffer":0,"byteLength":696,"byteOffset":95928,"byteStride":12,"target":34962},{"buffer":0,"byteLength":928,"byteOffset":96624,"byteStride":16,"target":34962},{"buffer":0,"byteLength":696,"byteOffset":97552,"byteStride":12,"target":34962},{"buffer":0,"byteLength":464,"byteOffset":98248,"byteStride":8,"target":34962},{"buffer":0,"byteLength":120,"byteOffset":98712,"target":34963},{"buffer":0,"byteLength":1056,"byteOffset":98832,"byteStride":12,"target":34962},{"buffer":0,"byteLength":1408,"byteOffset":99888,"byteStride":16,"target":34962},{"buffer":0,"byteLength":1056,"byteOffset":101296,"byteStride":12,"target":34962},{"buffer":0,"byteLength":704,"byteOffset":102352,"byteStride":8,"target":34962},{"buffer":0,"byteLength":312,"byteOffset":103056,"target":34963},{"buffer":0,"byteLength":4,"byteOffset":103368},{"buffer":0,"byteLength":12,"byteOffset":103372},{"buffer":0,"byteLength":12,"byteOffset":103384},{"buffer":0,"byteLength":36,"byteOffset":103396}],"buffers":[{"byteLength":103432,"uri":"pistol0.bin"}],"extensionsUsed":["GODOT_single_root","KHR_materials_unlit"],"images":[{"uri":"textures%2FMaterial_albedo000.png"}],"materials":[{"extensions":{"KHR_materials_unlit":{}},"name":"Material","pbrMetallicRoughness":{"baseColorFactor":[0.999999582767487,0.999999582767487,0.999999582767487,1],"baseColorTexture":{"index":0},"metallicFactor":0,"roughnessFactor":1}}],"meshes":[{"extras":{"targetNames":[]},"primitives":[{"attributes":{"NORMAL":2,"POSITION":0,"TANGENT":1,"TEXCOORD_0":3},"indices":4,"material":0,"mode":4}]},{"extras":{"targetNames":[]},"primitives":[{"attributes":{"NORMAL":7,"POSITION":5,"TANGENT":6,"TEXCOORD_0":8},"indices":9,"material":0,"mode":4}]},{"extras":{"targetNames":[]},"primitives":[{"attributes":{"NORMAL":12,"POSITION":10,"TANGENT":11,"TEXCOORD_0":13},"indices":14,"material":0,"mode":4}]},{"extras":{"targetNames":[]},"primitives":[{"attributes":{"NORMAL":17,"POSITION":15,"TANGENT":16,"TEXCOORD_0":18},"indices":19,"material":0,"mode":4}]},{"extras":{"targetNames":[]},"primitives":[{"attributes":{"NORMAL":22,"POSITION":20,"TANGENT":21,"TEXCOORD_0":23},"indices":24,"material":0,"mode":4}]},{"extras":{"targetNames":[]},"primitives":[{"attributes":{"NORMAL":27,"POSITION":25,"TANGENT":26,"TEXCOORD_0":28},"indices":29,"material":0,"mode":4}]},{"extras":{"targetNames":[]},"primitives":[{"attributes":{"NORMAL":32,"POSITION":30,"TANGENT":31,"TEXCOORD_0":33},"indices":34,"material":0,"mode":4}]},{"extras":{"targetNames":[]},"primitives":[{"attributes":{"NORMAL":37,"POSITION":35,"TANGENT":36,"TEXCOORD_0":38},"indices":39,"material":0,"mode":4}]},{"extras":{"targetNames":[]},"primitives":[{"attributes":{"NORMAL":42,"POSITION":40,"TANGENT":41,"TEXCOORD_0":43},"indices":44,"material":0,"mode":4}]},{"extras":{"targetNames":[]},"primitives":[{"attributes":{"NORMAL":47,"POSITION":45,"TANGENT":46,"TEXCOORD_0":48},"indices":49,"material":0,"mode":4}]},{"extras":{"targetNames":[]},"primitives":[{"attributes":{"NORMAL":52,"POSITION":50,"TANGENT":51,"TEXCOORD_0":53},"indices":54,"material":0,"mode":4}]},{"extras":{"targetNames":[]},"primitives":[{"attributes":{"NORMAL":57,"POSITION":55,"TANGENT":56,"TEXCOORD_0":58},"indices":59,"material":0,"mode":4}]},{"extras":{"targetNames":[]},"primitives":[{"attributes":{"NORMAL":62,"POSITION":60,"TANGENT":61,"TEXCOORD_0":63},"indices":64,"material":0,"mode":4}]},{"extras":{"targetNames":[]},"primitives":[{"attributes":{"NORMAL":67,"POSITION":65,"TANGENT":66,"TEXCOORD_0":68},"indices":69,"material":0,"mode":4}]}],"nodes":[{"children":[1,34,35],"name":"Pistol","rotation":[0,1,0,0.0000000437113882867379]},{"children":[2],"name":"Node3D"},{"children":[3],"name":"Sketchfab_Scene"},{"children":[4],"name":"Sketchfab_model","rotation":[-0.70710676908493,0,0,0.70710676908493]},{"children":[5],"name":"239f88fecce642baae65ce9051ee2c9b_fbx","rotation":[0.70710676908493,0,0,0.70710676908493],"scale":[0.00999999977648258,0.00999999977648258,0.00999999977648258]},{"children":[6,20],"name":"RootNode"},{"children":[7,8,10,12,14,16,18],"name":"frame","rotation":[-0.70710682868958,0,0,0.707106709480286],"scale":[100,100,100],"translation":[-0,-17.8017883300781,0.793148875236511]},{"mesh":0,"name":"frame_Material_0"},{"children":[9],"name":"hammer","translation":[-0.00000000745058,0.294309437274933,0.934220552444458]},{"mesh":1,"name":"hammer_Material_0"},{"children":[11],"name":"slide","translation":[-0,-0.26819056272507,-0.19077950716019]},{"mesh":2,"name":"slide_Material_0"},{"children":[13],"name":"barrel","translation":[-0.00000002980232,-1.08069038391113,0.996720433235168]},{"mesh":3,"name":"barrel_Material_0"},{"children":[15],"name":"trigger","translation":[0.00000000372529784797848,-0.70569056272507,0.809220433235168]},{"mesh":4,"name":"trigger_Material_0"},{"children":[17],"name":"mag release","translation":[0.000000000000000970000002459878,-0.45569056272507,0.434220492839813]},{"mesh":5,"name":"mag release_Material_0"},{"children":[19],"name":"magazine","translation":[-0,-0.26819056272507,-0.19077950716019]},{"mesh":6,"name":"magazine_Material_0"},{"children":[21,22,24,26,28,30,32],"name":"frame_001","rotation":[-0.70710682868958,0,0,0.707106709480286],"scale":[100,100,100],"translation":[-0,-17.8017883300781,0.793148875236511]},{"mesh":7,"name":"frame_001_Material_0"},{"children":[23],"name":"hammer_001","translation":[-0.00000000745058,0.294309437274933,0.934220552444458]},{"mesh":8,"name":"hammer_001_Material_0"},{"children":[25],"name":"slide_001","translation":[-0,-0.26819056272507,-0.19077950716019]},{"mesh":9,"name":"slide_001_Material_0"},{"children":[27],"name":"barrel_001","translation":[-0.00000002980232,-1.08069038391113,0.996720433235168]},{"mesh":10,"name":"barrel_001_Material_0"},{"children":[29],"name":"trigger_001","translation":[0.00000000372529784797848,-0.70569056272507,0.809220433235168]},{"mesh":11,"name":"trigger_001_Material_0"},{"children":[31],"name":"mag release_001","translation":[0.000000000000000970000002459878,-0.45569056272507,0.434220492839813]},{"mesh":12,"name":"mag release_001_Material_0"},{"children":[33],"name":"magazine_001","translation":[-0,-0.26819056272507,-0.19077950716019]},{"mesh":13,"name":"magazine_001_Material_0"},{"name":"AnimationPlayer"},{"name":"Muzzle","translation":[0,0.932025194168091,2.32597589492798]}],"samplers":[{"magFilter":9728,"minFilter":9728,"wrapS":10497,"wrapT":10497}],"scene":0,"scenes":[{"nodes":[0]}],"textures":[{"sampler":0,"source":0}]}