{"accessors":[{"bufferView":0,"byteOffset":0,"componentType":5126,"count":20,"max":[0.125,0.5,0.125],"min":[-0.125,-0.5,-0.125],"normalized":false,"type":"VEC3"},{"bufferView":1,"byteOffset":0,"componentType":5126,"count":20,"max":[1,0,1,1],"min":[-1,-0.00001525925472,-1,1],"normalized":false,"type":"VEC4"},{"bufferView":2,"byteOffset":0,"componentType":5126,"count":20,"max":[0.992279231548309,0.124024219810963,1],"min":[-0.9922816157341,-1,-1],"normalized":false,"type":"VEC3"},{"bufferView":3,"byteOffset":0,"componentType":5126,"count":20,"max":[1,1],"min":[0,0],"normalized":false,"type":"VEC2"},{"bufferView":4,"byteOffset":0,"componentType":5123,"count":24,"max":[19],"min":[2],"normalized":false,"type":"SCALAR"}],"asset":{"generator":"Godot Engine v4.3.stable.official@77dcf97d82cbfe4e4615475fa52ca03da645dbd8","version":"2.0"},"bufferViews":[{"buffer":0,"byteLength":240,"byteOffset":0,"byteStride":12,"target":34962},{"buffer":0,"byteLength":320,"byteOffset":240,"byteStride":16,"target":34962},{"buffer":0,"byteLength":240,"byteOffset":560,"byteStride":12,"target":34962},{"buffer":0,"byteLength":160,"byteOffset":800,"byteStride":8,"target":34962},{"buffer":0,"byteLength":48,"byteOffset":960,"target":34963}],"buffers":[{"byteLength":1008,"uri":"rocket0.bin"}],"extensions":{"OMI_physics_shape":{"shapes":[{"capsule":{"height":1.15076494216919,"radius":0.423341244459152},"type":"capsule"}]}},"extensionsUsed":["GODOT_single_root","OMI_physics_body","OMI_physics_shape"],"materials":[{"extensions":{},"pbrMetallicRoughness":{"baseColorFactor":[0.99999988079071,0.99999988079071,0.99999988079071,1],"metallicFactor":0,"roughnessFactor":1}}],"meshes":[{"extras":{"targetNames":[]},"primitives":[{"attributes":{"NORMAL":2,"POSITION":0,"TANGENT":1,"TEXCOORD_0":3},"indices":4,"material":0,"mode":4}]}],"nodes":[{"children":[1,3],"extensions":{"OMI_physics_body":{"motion":{"type":"dynamic"}}},"name":"Rocket"},{"children":[2],"name":"RocketModel","scale":[0.5,0.5,0.5]},{"mesh":0,"name":"MeshInstance3D","rotation":[-0.7061094045639,0.000549815595149994,0.000483777839690447,0.708102405071259],"translation":[0.00404989719390869,0,-0.08277451992035]},{"extensions":{"OMI_physics_body":{"collider":{"shape":0}}},"name":"CollisionShape3D","rotation":[-0.70710676908493,0,0,0.70710676908493]}],"scene":0,"scenes":[{"nodes":[0]}]}