{
  "accessors": [
    {
      "bufferView": 2,
      "componentType": 5126,
      "count": 1984,
      "max": [
        2.540733814239502,
        2.3814573287963867,
        2.673325300216675
      ],
      "min": [
        -2.383287191390991,
        -2.3551571369171143,
        -2.665135622024536
      ],
      "type": "VEC3"
    },
    {
      "bufferView": 2,
      "byteOffset": 23808,
      "componentType": 5126,
      "count": 1984,
      "max": [
        0.9998132586479187,
        0.9993233680725098,
        0.9984769821166992
      ],
      "min": [
        -0.9959567189216614,
        -0.9968204498291016,
        -0.9913687705993652
      ],
      "type": "VEC3"
    },
    {
      "bufferView": 1,
      "componentType": 5126,
      "count": 1984,
      "max": [
        0.04998382180929184,
        0.4237000644207001
      ],
      "min": [
        0.04006073996424675,
        0.4203298091888428
      ],
      "type": "VEC2"
    },
    {
      "bufferView": 0,
      "componentType": 5125,
      "count": 2880,
      "type": "SCALAR"
    },
    {
      "bufferView": 2,
      "byteOffset": 47616,
      "componentType": 5126,
      "count": 1984,
      "max": [
        2.540733814239502,
        2.3814573287963867,
        2.673325300216675
      ],
      "min": [
        -2.383287191390991,
        -2.3551571369171143,
        -2.665135622024536
      ],
      "type": "VEC3"
    },
    {
      "bufferView": 2,
      "byteOffset": 71424,
      "componentType": 5126,
      "count": 1984,
      "max": [
        0.9998132586479187,
        0.9993233680725098,
        0.9984769821166992
      ],
      "min": [
        -0.9959567189216614,
        -0.9968204498291016,
        -0.9913687705993652
      ],
      "type": "VEC3"
    },
    {
      "bufferView": 1,
      "byteOffset": 15872,
      "componentType": 5126,
      "count": 1984,
      "max": [
        0.09075134992599487,
        0.42099910974502563
      ],
      "min": [
        0.0889582484960556,
        0.417976051568985
      ],
      "type": "VEC2"
    },
    {
      "bufferView": 0,
      "byteOffset": 11520,
      "componentType": 5125,
      "count": 2880,
      "type": "SCALAR"
    },
    {
      "bufferView": 2,
      "byteOffset": 95232,
      "componentType": 5126,
      "count": 1984,
      "max": [
        2.540733814239502,
        2.3814573287963867,
        2.673325300216675
      ],
      "min": [
        -2.383287191390991,
        -2.3551571369171143,
        -2.665135622024536
      ],
      "type": "VEC3"
    },
    {
      "bufferView": 2,
      "byteOffset": 119040,
      "componentType": 5126,
      "count": 1984,
      "max": [
        0.9998132586479187,
        0.9993233680725098,
        0.9984769821166992
      ],
      "min": [
        -0.9959567189216614,
        -0.9968204498291016,
        -0.9913687705993652
      ],
      "type": "VEC3"
    },
    {
      "bufferView": 1,
      "byteOffset": 31744,
      "componentType": 5126,
      "count": 1984,
      "max": [
        0.011268947273492813,
        0.4109308421611786
      ],
      "min": [
        0.009777937084436417,
        0.40789273381233215
      ],
      "type": "VEC2"
    },
    {
      "bufferView": 0,
      "byteOffset": 23040,
      "componentType": 5125,
      "count": 2880,
      "type": "SCALAR"
    }
  ],
  "asset": {
    "extras": {
      "author": "LEON elenaisakova248 (https://sketchfab.com/elenaisakova248)",
      "license": "CC-BY-4.0 (http://creativecommons.org/licenses/by/4.0/)",
      "source": "https://sketchfab.com/3d-models/explosion-d82e6104bf1044f18822e338d5ad42b4",
      "title": "explosion"
    },
    "generator": "Sketchfab-16.12.0",
    "version": "2.0"
  },
  "bufferViews": [
    {
      "buffer": 0,
      "byteLength": 34560,
      "name": "floatBufferViews",
      "target": 34963
    },
    {
      "buffer": 0,
      "byteLength": 47616,
      "byteOffset": 34560,
      "byteStride": 8,
      "name": "floatBufferViews",
      "target": 34962
    },
    {
      "buffer": 0,
      "byteLength": 142848,
      "byteOffset": 82176,
      "byteStride": 12,
      "name": "floatBufferViews",
      "target": 34962
    }
  ],
  "buffers": [
    {
      "byteLength": 225024,
      "uri": "scene.bin"
    }
  ],
  "extensionsUsed": [
    "KHR_materials_emissive_strength",
    "KHR_materials_transmission"
  ],
  "images": [
    {
      "uri": "textures/Material.001_baseColor.png"
    },
    {
      "uri": "textures/Material.001_transmission.png"
    }
  ],
  "materials": [
    {
      "alphaMode": "BLEND",
      "extensions": {
        "KHR_materials_emissive_strength": {
          "emissiveStrength": 2.9104850605258985
        },
        "KHR_materials_transmission": {
          "transmissionFactor": 1.0,
          "transmissionTexture": {
            "index": 1
          }
        }
      },
      "name": "Material.001",
      "pbrMetallicRoughness": {
        "baseColorFactor": [
          1.0,
          0.24383786812995056,
          0.0,
          1.0
        ],
        "baseColorTexture": {
          "index": 0
        },
        "metallicFactor": 0.0,
        "roughnessFactor": 0.5409540295741854
      }
    }
  ],
  "meshes": [
    {
      "name": "Object_0",
      "primitives": [
        {
          "attributes": {
            "NORMAL": 1,
            "POSITION": 0,
            "TEXCOORD_0": 2
          },
          "indices": 3,
          "material": 0,
          "mode": 4
        }
      ]
    },
    {
      "name": "Object_1",
      "primitives": [
        {
          "attributes": {
            "NORMAL": 5,
            "POSITION": 4,
            "TEXCOORD_0": 6
          },
          "indices": 7,
          "material": 0,
          "mode": 4
        }
      ]
    },
    {
      "name": "Object_2",
      "primitives": [
        {
          "attributes": {
            "NORMAL": 9,
            "POSITION": 8,
            "TEXCOORD_0": 10
          },
          "indices": 11,
          "material": 0,
          "mode": 4
        }
      ]
    }
  ],
  "nodes": [
    {
      "children": [
        1
      ],
      "matrix": [
        1.0,
        0.0,
        0.0,
        0.0,
        0.0,
        2.220446049250313e-16,
        -1.0,
        0.0,
        0.0,
        1.0,
        2.220446049250313e-16,
        0.0,
        0.0,
        0.0,
        0.0,
        1.0
      ],
      "name": "Sketchfab_model"
    },
    {
      "children": [
        2
      ],
      "name": "root"
    },
    {
      "children": [
        3,
        5,
        7
      ],
      "matrix": [
        1.0,
        0.0,
        0.0,
        0.0,
        0.0,
        2.220446049250313e-16,
        1.0,
        0.0,
        0.0,
        -1.0,
        2.220446049250313e-16,
        0.0,
        0.0,
        0.0,
        0.0,
        1.0
      ],
      "name": "GLTF_SceneRootNode"
    },
    {
      "children": [
        4
      ],
      "matrix": [
        0.9247459173202515,
        0.0,
        0.0,
        0.0,
        0.0,
        0.9247459173202515,
        0.0,
        0.0,
        0.0,
        0.0,
        0.9247459173202515,
        0.0,
        0.0,
        0.0,
        0.0,
        1.0
      ],
      "name": "Sphere_2"
    },
    {
      "mesh": 0,
      "name": "Object_4"
    },
    {
      "children": [
        6
      ],
      "matrix": [
        0.6535879969596863,
        0.0,
        0.0,
        0.0,
        0.0,
        0.6535879969596863,
        0.0,
        0.0,
        0.0,
        0.0,
        0.6535879969596863,
        0.0,
        0.0,
        0.0,
        0.0,
        1.0
      ],
      "name": "Sphere.001_3"
    },
    {
      "mesh": 1,
      "name": "Object_6"
    },
    {
      "children": [
        8
      ],
      "matrix": [
        1.2190403938293457,
        0.0,
        0.0,
        0.0,
        0.0,
        1.2190403938293457,
        0.0,
        0.0,
        0.0,
        0.0,
        1.2190403938293457,
        0.0,
        0.0,
        0.0,
        0.0,
        1.0
      ],
      "name": "Sphere.002_4"
    },
    {
      "mesh": 2,
      "name": "Object_8"
    }
  ],
  "samplers": [
    {
      "magFilter": 9729,
      "minFilter": 9987,
      "wrapS": 10497,
      "wrapT": 10497
    }
  ],
  "scene": 0,
  "scenes": [
    {
      "name": "Sketchfab_Scene",
      "nodes": [
        0
      ]
    }
  ],
  "textures": [
    {
      "sampler": 0,
      "source": 0
    },
    {
      "sampler": 0,
      "source": 1
    }
  ]
}
