{
  "accessors": [
    {
      "bufferView": 2,
      "componentType": 5126,
      "count": 749,
      "max": [
        11.97712516784668,
        14.2916898727417,
        2.9943230152130127
      ],
      "min": [
        -18.30929946899414,
        -0.48089849948883057,
        -1.8182706832885742
      ],
      "type": "VEC3"
    },
    {
      "bufferView": 2,
      "byteOffset": 8988,
      "componentType": 5126,
      "count": 749,
      "max": [
        0.9990593194961548,
        0.9782076478004456,
        0.9993832111358643
      ],
      "min": [
        -0.9989933967590332,
        -0.965941846370697,
        -0.9993831515312195
      ],
      "type": "VEC3"
    },
    {
      "bufferView": 1,
      "componentType": 5126,
      "count": 749,
      "max": [
        0.9728907346725464,
        0.9854364395141602
      ],
      "min": [
        0.013583123683929443,
        0.013769358396530151
      ],
      "type": "VEC2"
    },
    {
      "bufferView": 0,
      "componentType": 5125,
      "count": 2112,
      "type": "SCALAR"
    },
    {
      "bufferView": 2,
      "byteOffset": 17976,
      "componentType": 5126,
      "count": 40,
      "max": [
        10.013917922973633,
        9.003437042236328,
        2.731621026992798
      ],
      "min": [
        -13.691863059997559,
        1.2972471714019775,
        -1.6939746141433716
      ],
      "type": "VEC3"
    },
    {
      "bufferView": 2,
      "byteOffset": 18456,
      "componentType": 5126,
      "count": 40,
      "max": [
        0.034464020282030106,
        0.0067670890130102634,
        0.9993831515312195
      ],
      "min": [
        -0.0344642698764801,
        -0.00676807900890708,
        -0.9993831515312195
      ],
      "type": "VEC3"
    },
    {
      "bufferView": 1,
      "byteOffset": 5992,
      "componentType": 5126,
      "count": 40,
      "max": [
        0.9576195478439331,
        0.8257283568382263
      ],
      "min": [
        0.181825190782547,
        0.024519920349121094
      ],
      "type": "VEC2"
    },
    {
      "bufferView": 0,
      "byteOffset": 8448,
      "componentType": 5125,
      "count": 60,
      "type": "SCALAR"
    },
    {
      "bufferView": 2,
      "byteOffset": 18936,
      "componentType": 5126,
      "count": 1150,
      "max": [
        10.031814575195313,
        14.220054626464844,
        2.3328359127044678
      ],
      "min": [
        -18.85103988647461,
        -0.02442038059234619,
        -1.8618077039718628
      ],
      "type": "VEC3"
    },
    {
      "bufferView": 2,
      "byteOffset": 32736,
      "componentType": 5126,
      "count": 1150,
      "max": [
        0.9973350763320923,
        0.9868624210357666,
        0.9995620250701904
      ],
      "min": [
        -0.9993611574172974,
        -0.9170370697975159,
        -0.9996333718299866
      ],
      "type": "VEC3"
    },
    {
      "bufferView": 1,
      "byteOffset": 6312,
      "componentType": 5126,
      "count": 1150,
      "max": [
        0.8017781972885132,
        0.9862306118011475
      ],
      "min": [
        0.013583123683929443,
        0.013769328594207764
      ],
      "type": "VEC2"
    },
    {
      "bufferView": 0,
      "byteOffset": 8688,
      "componentType": 5125,
      "count": 3132,
      "type": "SCALAR"
    },
    {
      "bufferView": 2,
      "byteOffset": 46536,
      "componentType": 5126,
      "count": 336,
      "max": [
        -0.16457247734069824,
        12.202006340026855,
        2.233825922012329
      ],
      "min": [
        -9.81728744506836,
        6.156653881072998,
        -1.4919806718826294
      ],
      "type": "VEC3"
    },
    {
      "bufferView": 2,
      "byteOffset": 50568,
      "componentType": 5126,
      "count": 336,
      "max": [
        0.8918679356575012,
        0.8965427279472351,
        0.9993831515312195
      ],
      "min": [
        -0.9840922951698303,
        -0.6774759888648987,
        -0.9993831515312195
      ],
      "type": "VEC3"
    },
    {
      "bufferView": 1,
      "byteOffset": 15512,
      "componentType": 5126,
      "count": 336,
      "max": [
        0.5953894853591919,
        0.7013850212097168
      ],
      "min": [
        0.033809155225753784,
        0.2938104569911957
      ],
      "type": "VEC2"
    },
    {
      "bufferView": 0,
      "byteOffset": 21216,
      "componentType": 5125,
      "count": 504,
      "type": "SCALAR"
    },
    {
      "bufferView": 2,
      "byteOffset": 54600,
      "componentType": 5126,
      "count": 72,
      "max": [
        9.406475067138672,
        9.182194709777832,
        1.5013870000839233
      ],
      "min": [
        2.33611798286438,
        2.0958428382873535,
        -1.5495659112930298
      ],
      "type": "VEC3"
    },
    {
      "bufferView": 2,
      "byteOffset": 55464,
      "componentType": 5126,
      "count": 72,
      "max": [
        0.3675224781036377,
        0.40674248337745667,
        0.9993831515312195
      ],
      "min": [
        -0.3911066949367523,
        -0.3028603792190552,
        -0.9993831515312195
      ],
      "type": "VEC3"
    },
    {
      "bufferView": 1,
      "byteOffset": 18200,
      "componentType": 5126,
      "count": 72,
      "max": [
        0.7457609176635742,
        0.8692895770072937
      ],
      "min": [
        0.19476816058158875,
        0.13256660103797913
      ],
      "type": "VEC2"
    },
    {
      "bufferView": 0,
      "byteOffset": 23232,
      "componentType": 5125,
      "count": 132,
      "type": "SCALAR"
    },
    {
      "bufferView": 2,
      "byteOffset": 56328,
      "componentType": 5126,
      "count": 8,
      "max": [
        5.681913375854492,
        13.166504859924316,
        0.43175676465034485
      ],
      "min": [
        3.4393982887268066,
        12.002622604370117,
        -0.32248127460479736
      ],
      "type": "VEC3"
    },
    {
      "bufferView": 2,
      "byteOffset": 56424,
      "componentType": 5126,
      "count": 8,
      "max": [
        0.2671048641204834,
        0.5679998397827148,
        0.852573573589325
      ],
      "min": [
        0.2670702338218689,
        0.4492124915122986,
        -0.7784801721572876
      ],
      "type": "VEC3"
    },
    {
      "bufferView": 1,
      "byteOffset": 18776,
      "componentType": 5126,
      "count": 8,
      "max": [
        0.43552494049072266,
        0.7420257329940796
      ],
      "min": [
        0.029597342014312744,
        0.2686529755592346
      ],
      "type": "VEC2"
    },
    {
      "bufferView": 0,
      "byteOffset": 23760,
      "componentType": 5125,
      "count": 12,
      "type": "SCALAR"
    },
    {
      "bufferView": 2,
      "byteOffset": 56520,
      "componentType": 5126,
      "count": 34,
      "max": [
        -14.850773811340332,
        3.830244541168213,
        1.484840750694275
      ],
      "min": [
        -18.024282455444336,
        0.44549548625946045,
        0.04947734996676445
      ],
      "type": "VEC3"
    },
    {
      "bufferView": 2,
      "byteOffset": 56928,
      "componentType": 5126,
      "count": 34,
      "max": [
        -0.891852855682373,
        -0.4514656662940979,
        0.027701938524842262
      ],
      "min": [
        -0.8918585181236267,
        -0.4514770805835724,
        0.027695920318365097
      ],
      "type": "VEC3"
    },
    {
      "bufferView": 1,
      "byteOffset": 18840,
      "componentType": 5126,
      "count": 34,
      "max": [
        0.5824615359306335,
        0.13963967561721802
      ],
      "min": [
        0.03913268446922302,
        0.030494332313537598
      ],
      "type": "VEC2"
    },
    {
      "bufferView": 0,
      "byteOffset": 23808,
      "componentType": 5125,
      "count": 96,
      "type": "SCALAR"
    }
  ],
  "asset": {
    "extras": {
      "author": "MrPuppet (https://sketchfab.com/MrPuppet)",
      "license": "CC-BY-4.0 (http://creativecommons.org/licenses/by/4.0/)",
      "source": "https://sketchfab.com/3d-models/sci-fi-low-poly-gun-d8dbf3598425477c8a2debc6507e298f",
      "title": "Sci-fi low poly Gun"
    },
    "generator": "Sketchfab-13.5.0",
    "version": "2.0"
  },
  "bufferViews": [
    {
      "buffer": 0,
      "byteLength": 24192,
      "name": "floatBufferViews",
      "target": 34963
    },
    {
      "buffer": 0,
      "byteLength": 19112,
      "byteOffset": 24192,
      "byteStride": 8,
      "name": "floatBufferViews",
      "target": 34962
    },
    {
      "buffer": 0,
      "byteLength": 57336,
      "byteOffset": 43304,
      "byteStride": 12,
      "name": "floatBufferViews",
      "target": 34962
    }
  ],
  "buffers": [
    {
      "byteLength": 100640,
      "uri": "scene.bin"
    }
  ],
  "materials": [
    {
      "doubleSided": true,
      "name": "blinn2",
      "pbrMetallicRoughness": {
        "baseColorFactor": [
          0.020742511621608114,
          0.020742511621608114,
          0.020742511621608114,
          1.0
        ],
        "roughnessFactor": 0.7699040606599944
      }
    },
    {
      "doubleSided": true,
      "emissiveFactor": [
        0.0,
        1.0,
        0.006728272589356758
      ],
      "name": "blinn3",
      "pbrMetallicRoughness": {
        "baseColorFactor": [
          0.28069688488889677,
          1.0,
          0.0,
          1.0
        ],
        "roughnessFactor": 0.5838208549712183
      }
    },
    {
      "doubleSided": true,
      "name": "blinn1",
      "pbrMetallicRoughness": {
        "baseColorFactor": [
          0.013314292935956682,
          0.013314292935956682,
          0.013314292935956682,
          1.0
        ],
        "roughnessFactor": 0.8430471407150955
      }
    },
    {
      "doubleSided": true,
      "name": "phong2",
      "pbrMetallicRoughness": {
        "baseColorFactor": [
          0.062358699999999996,
          0.08700000000000001,
          0.041238,
          1.0
        ],
        "metallicFactor": 0.4739062061903426,
        "roughnessFactor": 0.5260937938096574
      }
    },
    {
      "doubleSided": true,
      "name": "phong1",
      "pbrMetallicRoughness": {
        "baseColorFactor": [
          0.0194805,
          0.0194805,
          0.0194805,
          1.0
        ],
        "metallicFactor": 0.0,
        "roughnessFactor": 0.36152186368567985
      }
    },
    {
      "doubleSided": true,
      "name": "lambert1",
      "pbrMetallicRoughness": {
        "baseColorFactor": [
          0.0,
          0.0,
          0.0,
          1.0
        ],
        "metallicFactor": 0.0,
        "roughnessFactor": 0.6
      }
    },
    {
      "doubleSided": true,
      "name": "lambert2",
      "pbrMetallicRoughness": {
        "baseColorFactor": [
          0.0,
          0.0,
          0.0,
          1.0
        ],
        "metallicFactor": 0.0,
        "roughnessFactor": 0.6
      }
    }
  ],
  "meshes": [
    {
      "name": "polySurface9_blinn2_0",
      "primitives": [
        {
          "attributes": {
            "NORMAL": 1,
            "POSITION": 0,
            "TEXCOORD_0": 2
          },
          "indices": 3,
          "material": 0,
          "mode": 4
        }
      ]
    },
    {
      "name": "polySurface9_blinn3_0",
      "primitives": [
        {
          "attributes": {
            "NORMAL": 5,
            "POSITION": 4,
            "TEXCOORD_0": 6
          },
          "indices": 7,
          "material": 1,
          "mode": 4
        }
      ]
    },
    {
      "name": "polySurface9_blinn1_0",
      "primitives": [
        {
          "attributes": {
            "NORMAL": 9,
            "POSITION": 8,
            "TEXCOORD_0": 10
          },
          "indices": 11,
          "material": 2,
          "mode": 4
        }
      ]
    },
    {
      "name": "polySurface9_phong2_0",
      "primitives": [
        {
          "attributes": {
            "NORMAL": 13,
            "POSITION": 12,
            "TEXCOORD_0": 14
          },
          "indices": 15,
          "material": 3,
          "mode": 4
        }
      ]
    },
    {
      "name": "polySurface9_phong1_0",
      "primitives": [
        {
          "attributes": {
            "NORMAL": 17,
            "POSITION": 16,
            "TEXCOORD_0": 18
          },
          "indices": 19,
          "material": 4,
          "mode": 4
        }
      ]
    },
    {
      "name": "polySurface9_lambert1_0",
      "primitives": [
        {
          "attributes": {
            "NORMAL": 21,
            "POSITION": 20,
            "TEXCOORD_0": 22
          },
          "indices": 23,
          "material": 5,
          "mode": 4
        }
      ]
    },
    {
      "name": "polySurface9_lambert2_0",
      "primitives": [
        {
          "attributes": {
            "NORMAL": 25,
            "POSITION": 24,
            "TEXCOORD_0": 26
          },
          "indices": 27,
          "material": 6,
          "mode": 4
        }
      ]
    }
  ],
  "nodes": [
    {
      "children": [
        1
      ],
      "matrix": [
        1.0,
        0.0,
        0.0,
        0.0,
        0.0,
        2.220446049250313e-16,
        -1.0,
        0.0,
        0.0,
        1.0,
        2.220446049250313e-16,
        0.0,
        0.0,
        0.0,
        0.0,
        1.0
      ],
      "name": "Sketchfab_model"
    },
    {
      "children": [
        2
      ],
      "matrix": [
        0.009999999776482582,
        0.0,
        0.0,
        0.0,
        0.0,
        0.0,
        0.009999999776482582,
        0.0,
        0.0,
        -0.009999999776482582,
        0.0,
        0.0,
        0.0,
        0.0,
        0.0,
        1.0
      ],
      "name": "45dfcf1d8ad345f682c18a9b9147ec15.fbx"
    },
    {
      "children": [
        3
      ],
      "name": "RootNode"
    },
    {
      "children": [
        4,
        5,
        6,
        7,
        8,
        9,
        10
      ],
      "name": "polySurface9"
    },
    {
      "mesh": 0,
      "name": "polySurface9_blinn2_0"
    },
    {
      "mesh": 1,
      "name": "polySurface9_blinn3_0"
    },
    {
      "mesh": 2,
      "name": "polySurface9_blinn1_0"
    },
    {
      "mesh": 3,
      "name": "polySurface9_phong2_0"
    },
    {
      "mesh": 4,
      "name": "polySurface9_phong1_0"
    },
    {
      "mesh": 5,
      "name": "polySurface9_lambert1_0"
    },
    {
      "mesh": 6,
      "name": "polySurface9_lambert2_0"
    }
  ],
  "scene": 0,
  "scenes": [
    {
      "name": "Sketchfab_Scene",
      "nodes": [
        0
      ]
    }
  ]
}
